<?xml version="1.0" encoding="utf-8"?>
<!-- Generator: Adobe Illustrator 27.9.0, SVG Export Plug-In . SVG Version: 6.00 Build 0)  -->
<svg version="1.1" id="Calque_1" xmlns="http://www.w3.org/2000/svg" xmlns:xlink="http://www.w3.org/1999/xlink" x="0px" y="0px"
	 viewBox="0 0 640 222" style="enable-background:new 0 0 640 222;" xml:space="preserve">
<style type="text/css">
	.st0{fill-rule:evenodd;clip-rule:evenodd;fill:#FFFFFF;}
</style>
<path class="st0" d="M203.8,202.2c-1,0.1-1.7,0.2-2.4,0.2c-8.7,0-17.5,0-26.2,0c-1.9,0-2.7-0.7-3.4-2.4
	c-20.6-49.6-41.3-99.2-62-148.8c-3.7-8.7-7.8-17.3-11.7-25.9c-0.5-1.2-1.3-2.2-2.1-3.5c-0.4,0.5-0.7,0.7-0.7,1
	C90.9,40,82.8,55.3,74.1,70.4c-10,17.4-20.3,34.6-30.2,52.1c-5.7,10.2-10.5,20.8-12.7,32.4c-1,4.9-1.3,9.9-0.3,14.9
	c1.5,7.2,7,10.8,14.2,9.5c5.4-0.9,10-3.5,14.3-6.7c12.1-9,22.2-20.1,32.4-31.1c5.1-5.5,10-11.2,15.6-16.1c5.1-4.5,11.4-6.4,18.1-3.6
	c2.5,1,4.8,2.8,6.7,4.6c3.6,3.4,6.9,7.2,10,10.6c-7-0.5-13.6,2.7-19.1,7.4c-7.4,6.4-14.4,13.3-21.3,20.3
	c-9.1,9.4-17.4,19.6-27.8,27.6c-5.9,4.5-12.1,8.5-19.5,9.7c-17.6,2.9-33.3-4.9-35.8-25.3c-1.3-10.7,1.5-20.6,5.3-30.4
	c5.5-14.1,13.6-26.9,22-39.4c13.8-20.5,27.4-40.9,38.4-63c3.9-7.8,7.6-15.7,9-24.5c0.1-0.6,1.5-1.4,2.3-1.4c8-0.1,16-0.1,24-0.1
	c5.3,0,5.2,0,7.3,4.8c21.2,51,42.4,102.1,63.8,153.1c3.5,8.3,8,16.1,12,24.1C203,200.7,203.3,201.3,203.8,202.2z"/>
<path class="st0" d="M541.7,171c1.8,8.4,4.6,15.7,9.9,21.9c8.8,10.5,21.6,9.2,30.3,1.6c8.1-7.1,11.8-16.8,14.4-26.9
	c2.8-11,3.3-22.2,2.4-33.5c-0.8-10.3-3-20.4-8.4-29.5c-3.7-6.2-8.7-11.2-16.1-12.9c-9.2-2.1-17.3,0.8-24.5,6.3
	c-10.9,8.3-17.4,19.6-20.9,32.6c-0.3,1-0.2,2.1-0.2,3.2c0,22.1,0,44.2,0,66.2c0,1.1,0,2.1,0,3.4c-8.4,0-16.5,0-24.9,0
	c0.4-3.4,1-6.7,1.2-10.1c0.5-7,1.2-13.9,1.2-20.9c0.1-41.1,0.2-82.2,0-123.2c-0.1-9.4-1.4-18.7-2.1-28.1c-0.1-0.8,0-1.6,0-2.7
	c9,0,18,0,27.1,0c-0.4,3.5-0.8,6.7-1.1,10c-0.5,6.4-1.2,12.8-1.3,19.2c-0.2,21.2-0.1,42.5-0.1,63.7c0,0.8,0.1,1.6,0.1,3.1
	c1.1-1.6,1.8-2.5,2.4-3.5c7.1-11,16.6-18.8,29.6-21.7c16.4-3.7,31.4-0.8,43.9,10.8c7.7,7.1,12.1,16.2,14.6,26.2
	c3.9,15.5,3.5,30.9-3.3,45.6c-6.7,14.4-17,25.3-32.7,29.9c-18.4,5.4-36-1.4-46.3-17.6c-0.4-0.6-0.5-1.6-0.2-2.2
	C538.2,178.5,539.8,175.1,541.7,171z"/>
<path class="st0" d="M448.1,203.6c-9.2,0-18.1,0-27.4,0c0.4-3,0.9-5.8,1.1-8.6c0.5-7.1,1.3-14.3,1.3-21.4c0.1-41.8,0.2-83.6,0-125.4
	c-0.1-9.3-1.5-18.5-2.2-27.8c-0.1-0.7,0-1.3,0-2.1c9,0,18,0,27.2,0c-0.4,3.8-0.9,7.5-1.2,11.3c-0.5,6.5-1.2,13.1-1.2,19.7
	c-0.1,41.1-0.2,82.3,0,123.4c0.1,9.3,1.4,18.6,2.1,27.8C447.9,201.4,448,202.4,448.1,203.6z"/>
<path class="st0" d="M366.4,194.7c-1.7,1.5-3.1,3.3-5,4.4c-8.5,4.7-17.6,6.1-27,3.3c-8.3-2.6-13.1-8.9-15-17
	c-1.4-5.9-2-12.2-2.1-18.3c-0.2-24.1-0.1-48.1-0.1-72.2c0-3.8-0.1-3.9-3.9-3.9c-2.2,0-4.5-0.1-6.7,0c-2,0.1-2.8-0.6-2.2-2.5
	c18.7-4.6,27.5-17.8,31.9-35.1c0.1-0.6,0.1-1.3,0.4-1.7c0.5-0.6,1.3-1.1,2-1.6c0.4,0.7,1.2,1.3,1.2,2c0.1,6.6,0.1,13.2,0.1,19.7
	c0,4.5,0.1,9,0,13.5c0,2,0.7,2.8,2.8,2.8c6-0.1,12-0.1,18,0c1,0,2.8-0.9,2.8,1.3c0,2.2-1.8,1.5-3,1.5c-5.8,0.1-11.7,0.1-17.5,0
	c-2.4,0-3.1,0.8-3.1,3.2c0.1,27,0,54,0.2,81c0,4.6,0.7,9.3,2.1,13.7c2.4,8.1,9.2,10.7,17,8.1c2.3-0.8,4.5-1.9,6.7-2.9
	C366,194.2,366.2,194.4,366.4,194.7z"/>
<path class="st0" d="M305.1,158.8c-1.5,6.8-4.2,12.9-8,18.6c-9.5,14-22.7,22.7-39.2,25.7c-32.8,5.9-61.5-15.7-66.9-46.7
	c-5.9-33.9,16.4-60.9,46.3-66.4c9.5-1.8,18.9-1.2,28.3-0.1c11.7,1.3,22.9,4.6,33.8,9.1c2.1,0.9,2.3,1.7,1.3,3.6
	c-1.8,3.2-3.3,6.5-5.1,10.1c-0.9-0.6-1.6-1-2.3-1.6c-11.6-9.1-24.3-15.6-38.9-18.2c-12.8-2.2-24.9-1-35.5,7.4
	c-7.2,5.7-11.1,13.3-12.4,22.3c-3.5,23.1,11.7,52.5,35.6,63.7c21,9.9,43.2,3.5,54.9-15.1c2.1-3.3,3.4-7.2,4.7-11
	C302.2,158.5,302.9,157.9,305.1,158.8z"/>
<path class="st0" d="M406.4,203.5c-9,0-18,0-26.6,0c3.1-38.4,2.8-76.8,0.1-115.5c0.4,0,1.2-0.2,2.1-0.2c7.3,0,14.7,0,22,0
	c2.1,0,2.6,0.5,2.4,2.7c-0.9,8-2,16-2.1,24.1c-0.3,19.6-0.3,39.1,0.1,58.7c0.2,9.5,1.4,18.9,2.1,28.3
	C406.5,202.2,406.4,202.8,406.4,203.5z"/>
<path class="st0" d="M488.9,203.6c-8.6,0-17.6,0-26.8,0c0.2-1.8,0.4-3.6,0.7-5.4c2.4-14.2,1.9-28.6,1.9-42.9
	c0-15.9-0.1-31.8-0.5-47.7c-0.1-5.9-1.1-11.7-1.8-17.6c-0.1-1.1-0.2-2.1,1.3-2.1c8.5,0,17,0,25.3,0C486,126.6,486.1,165,488.9,203.6
	z"/>
<path class="st0" d="M392.9,83.2c-6.3,0-11.1-4.9-11.1-11.2c0-6.2,4.8-11.1,11-11.1c6.6,0,11.4,4.8,11.4,11.3
	C404.2,78.2,398.6,84,392.9,83.2z"/>
<path class="st0" d="M475.8,83.2c-6.4,0-11.1-4.7-11.1-11.2c0-6.3,4.7-11.1,10.9-11.1c6.6,0,11.2,4.7,11.4,11.2
	C487.2,77.3,482.1,84,475.8,83.2z"/>
</svg>
