<?xml version="1.0" encoding="utf-8"?>
<!-- Generator: Adobe Illustrator 27.9.0, SVG Export Plug-In . SVG Version: 6.00 Build 0)  -->
<svg version="1.1" id="Calque_1" xmlns="http://www.w3.org/2000/svg" xmlns:xlink="http://www.w3.org/1999/xlink" x="0px" y="0px"
	 viewBox="0 0 253 253" style="enable-background:new 0 0 253 253;" xml:space="preserve">
<style type="text/css">
	.st0{fill:#0A847E;}
	.st1{fill-rule:evenodd;clip-rule:evenodd;fill:#FFFFFF;}
	.st2{fill:#FFFFFF;}
</style>
<path class="st0" d="M169.2,190.3H83.8c-11.7,0-21.1-9.5-21.1-21.1V83.8c0-11.7,9.5-21.1,21.1-21.1h85.5c11.7,0,21.1,9.5,21.1,21.1
	v85.5C190.3,180.9,180.9,190.3,169.2,190.3z"/>
<g>
	<g>
		<path class="st1" d="M170.4,170c-0.2-0.4-0.4-0.7-0.5-1c-1.9-3.8-4-7.5-5.7-11.4c-10.1-24.2-20.2-48.3-30.2-72.5
			c-0.9-2.3-0.9-2.3-3.5-2.3c-3.8,0-7.6,0-11.4,0c-0.4,0-1,0.4-1.1,0.7c-0.6,4.2-2.4,7.9-4.3,11.6c-5.2,10.4-11.6,20.1-18.1,29.7
			c-4,5.9-7.8,11.9-10.4,18.7c-1.8,4.6-3.1,9.3-2.5,14.4c1.2,9.7,8.7,13.4,17,12c3.5-0.6,6.4-2.5,9.2-4.6c5-3.8,8.9-8.6,13.2-13.1
			c3.3-3.3,6.5-6.6,10.1-9.6c2.6-2.2,5.7-3.7,9-3.5c-1.5-1.6-3-3.4-4.7-5c-0.9-0.9-2-1.7-3.2-2.2c-3.2-1.3-6.2-0.4-8.6,1.7
			c-2.7,2.4-5,5-7.4,7.6c-4.8,5.2-9.6,10.5-15.3,14.7c-2,1.5-4.2,2.7-6.8,3.2c-3.4,0.6-6-1.1-6.7-4.5c-0.5-2.4-0.3-4.7,0.1-7.1
			c1.1-5.5,3.3-10.5,6-15.3c4.6-8.3,9.5-16.4,14.3-24.7c4.1-7.1,8-14.4,9.9-22.5c0-0.1,0.2-0.2,0.3-0.5c0.4,0.6,0.8,1.1,1,1.7
			c1.9,4.1,3.8,8.1,5.5,12.3c9.9,23.5,19.6,47,29.4,70.5c0.3,0.8,0.7,1.1,1.6,1.1c4.1,0,8.3,0,12.4,0
			C169.6,170.1,169.9,170.1,170.4,170z"/>
	</g>
	<path class="st2" d="M170.4,151.8"/>
</g>
</svg>
